<svg width="1440" height="756" viewBox="0 0 1440 756" fill="none" xmlns="http://www.w3.org/2000/svg">
<g opacity="0.4">
<rect x="598" y="251" width="1376.03" height="767.907" rx="99" transform="rotate(-45 598 251)" fill="#FFEAA7"/>
</g>
<rect x="683" y="212" width="191" height="51" rx="25.5" fill="#55EFC4"/>
<path d="M1368.11 398.729C1366.99 401.877 1365.61 404.925 1363.96 407.838C1363.49 408.677 1362.99 409.501 1362.47 410.314H859.521C859.521 410.314 813.714 305.615 876.118 254.926C876.899 254.295 877.68 253.673 878.467 253.064C879.191 252.505 879.917 251.956 880.648 251.418C881.357 250.894 882.071 250.379 882.787 249.873C901.597 236.614 922.194 230.055 943.799 225.99C944.559 225.846 945.322 225.706 946.087 225.57C946.813 225.437 947.537 225.311 948.265 225.186C965.781 222.17 983.915 220.584 1002.26 218.228C1008.65 217.406 1015.06 216.491 1021.48 215.39C1047.18 210.989 1073.02 203.6 1097.89 187.277C1128.58 167.138 1160.23 162.039 1187.12 166.037C1188.95 166.308 1190.76 166.62 1192.54 166.977C1195.17 167.497 1197.74 168.104 1200.25 168.794C1232.54 177.641 1255.41 199.859 1256.72 222.836C1257.6 238.32 1259.44 253.201 1263.52 266.109C1265.4 272.087 1267.77 277.644 1270.75 282.642C1271.55 284.005 1272.41 285.324 1273.31 286.598C1282.21 299.171 1295.72 307.455 1316.32 308.834C1330.64 309.791 1342.7 316.194 1351.88 325.671C1351.97 325.758 1352.05 325.847 1352.14 325.936C1369.88 344.459 1376.72 374.517 1368.11 398.729Z" fill="#FCECDB"/>
<path d="M1368.11 398.729C1366.99 401.877 1365.61 404.925 1363.96 407.838H1192.54V166.974C1195.16 167.495 1197.73 168.102 1200.25 168.792C1232.54 177.639 1255.4 199.857 1256.72 222.833C1257.6 238.318 1259.44 253.199 1263.51 266.107C1265.4 272.085 1267.77 277.642 1270.74 282.64C1271.55 284.002 1272.41 285.322 1273.31 286.596C1282.2 299.169 1295.72 307.453 1316.32 308.831C1330.64 309.789 1342.7 316.192 1351.88 325.668C1351.96 325.755 1352.05 325.844 1352.13 325.934C1369.88 344.459 1376.72 374.517 1368.11 398.729Z" fill="#FFF4EB"/>
<path d="M1115.33 344.135C1114.45 343.57 1112.41 341.08 1111 339.264C1111.2 339.141 1111.32 339.068 1111.32 339.068C1107.2 327.772 1103.8 318.52 1101 310.941C1101.33 310.372 1101.65 309.504 1101.9 308.202C1102.92 302.993 1097.83 301.015 1097.83 301.015C1097.8 301.001 1097.77 300.991 1097.74 300.977C1100.78 278.209 1093.48 276.66 1093.48 276.66C1093.48 276.66 1090.85 275.86 1087.69 276.225C1086.61 273.913 1084.46 272.492 1080.9 272.312C1079.84 272.257 1078.67 272.47 1077.42 272.907C1077.59 272.648 1077.75 272.387 1077.91 272.123C1078.66 271.664 1084.89 267.66 1084.35 262.848C1084.25 261.894 1084.02 261.173 1083.72 260.633C1083.64 260.242 1083.52 259.876 1083.4 259.536C1083.95 257.117 1083.98 255.151 1083.35 254.025C1082.21 251.975 1080.06 250.541 1078.44 249.693C1079.12 249.562 1080.01 249.9 1080.01 249.9C1079.14 249.195 1076.34 248.76 1076.34 248.76C1066.38 236.118 1051.03 252.491 1048.23 256.758C1046.76 258.993 1045.1 261.356 1042.49 263.054C1041.09 262.333 1040.03 261.692 1039.54 261.2C1035.82 257.521 1031.36 245.175 1027.16 237.027C1027.16 237.022 1027.16 237.018 1027.16 237.012C1027.18 237.012 1027.2 237.014 1027.2 237.014C1026.68 235.636 1023.25 230.285 1023.25 230.285C1023.25 230.285 1023.25 230.285 1023.24 230.285C1023.23 230.271 1021.05 228.496 1015.02 226.382C1015.02 226.382 1014.54 226.198 1013.73 225.909C1013.36 225.307 1013.81 223.161 1014.43 220.943C1014.61 220.327 1014.79 219.708 1014.98 219.113C1015.13 218.621 1015.28 218.149 1015.43 217.71C1016.71 218.098 1017.58 218.277 1017.58 218.277C1018.8 218.459 1020.18 217.23 1021.48 215.388C1015.06 216.489 1008.65 217.404 1002.26 218.226C1001.01 220.228 999.748 221.469 998.858 221.886C997.993 221.791 996.945 221.698 995.941 221.649C995.941 221.649 989.483 220.868 985.646 222.117C985.548 222.141 985.465 222.165 985.386 222.19C985.386 222.19 983.24 222.722 981.766 225.633C981.007 227.121 980.425 229.231 980.396 232.215C980.396 232.215 980.403 232.208 980.409 232.202V232.225C980.374 232.711 980.409 233.229 980.443 233.775C980.51 235.318 980.849 237.188 981.354 239.243C981.37 242.994 981.447 248.112 980.81 253.507C980.611 255.187 979.987 256.795 979.001 258.218C978.612 258.785 978.161 259.323 977.664 259.823C973.675 263.815 966.6 271.773 968.154 276.727C968.164 277.116 968.481 277.512 969.05 277.915C966.917 281.231 964.536 286.964 965.138 295.586C965.649 302.904 966.582 334.005 967.558 343.208C967.911 346.544 968.219 348.917 968.347 349.866C968.349 349.872 968.349 349.874 968.349 349.876C968.387 350.166 968.274 350.439 968.109 350.69C966.673 352.864 965.485 355.127 964.509 357.445C958.362 372.063 960.723 388.858 963.195 398.998C963.162 398.968 963.126 398.937 963.096 398.907C963.519 401.624 961.743 402.644 960.609 404.891C959.424 407.229 959.968 410.314 959.968 410.314H982.65C982.191 406.482 975.583 406.822 974.101 405.873C972.76 405.012 970.568 401.903 970.166 401.322C970.138 401.326 970.107 401.328 970.081 401.33C972.162 391.623 976.516 372.288 980.246 362.231C981.112 359.893 981.944 358.059 982.707 356.959C984.926 353.763 986.986 348.538 988.858 342.323C989.126 341.43 989.39 340.513 989.651 339.582C989.903 340.868 990.134 342.05 990.339 343.101C990.556 344.212 990.749 345.178 990.903 345.981C991.237 347.702 991.428 348.678 991.428 348.678C990.497 352.077 990.355 355.763 990.785 359.565C992.538 375.066 1003.38 392.105 1009.15 400.231C1009.7 401.148 1010.1 401.901 1010.1 402.739C1010.1 403.371 1009.87 404.055 1009.31 404.889C1007.82 407.085 1008.67 410.312 1008.67 410.312H1031.35C1030.89 406.48 1024.29 406.82 1022.8 405.871C1021.5 405.033 1017.32 400.806 1016.34 399.812C1016.33 399.818 1016.32 399.824 1016.31 399.828C1014.33 391.803 1009.87 372.568 1009.11 359.103C1008.9 355.295 1008.97 351.979 1009.49 349.546C1010.19 346.226 1010.76 342.995 1011.21 339.866C1012.95 327.64 1012.89 316.945 1012.13 308.328C1011.89 305.504 1011.56 302.898 1011.2 300.536C1010.34 292.574 1009.43 287.389 1008.68 284.079C1010.58 283.788 1011.65 283.249 1011.49 282.405C1011.49 282.405 1011.96 280.367 1012.73 277.247C1013.5 277.435 1014.27 277.618 1015.04 277.796C1014.26 282.106 1014.99 286.693 1016.48 290.037C1016.53 290.157 1025.66 304.576 1025.66 304.576C1025.83 304.293 1026.12 303.937 1026.5 303.52C1025.87 309.536 1025.58 314.47 1024.54 315.852C1021.9 319.379 1007.33 344.184 1029.74 347.767C1032.55 348.311 1036.03 348.613 1040.24 348.576C1040.99 348.57 1041.71 348.542 1042.41 348.494C1043.7 348.56 1045.08 348.589 1046.55 348.576C1057.98 348.477 1064.98 343.795 1068.12 339.584C1068.95 338.463 1072.02 333.347 1075.78 326.496C1075.66 333.377 1075.62 338.363 1075.62 338.363C1075.5 339.331 1075.89 340.054 1076.59 340.592C1076.16 341.471 1075.63 342.323 1075.21 343.153C1074.02 345.493 1074.57 348.576 1074.57 348.576H1097.25C1096.79 344.746 1090.1 345.186 1088.7 344.135C1087.76 343.428 1087.13 342.69 1086.72 341.961C1087.09 341.932 1087.31 341.908 1087.31 341.908C1088.91 337.145 1090.29 332.73 1091.49 328.634C1096.08 335.511 1099.87 340.586 1099.87 340.586C1100.33 341.602 1101.17 342.086 1102.18 342.228C1102.12 342.526 1102.01 342.833 1101.85 343.153C1100.67 345.493 1101.21 348.576 1101.21 348.576L1123.89 350.164C1123.43 346.336 1116.82 345.086 1115.33 344.135ZM1018.69 270.144C1017.45 269.486 1016.21 268.816 1015.02 268.152C1016.22 263.589 1017.57 258.661 1018.86 254.574C1021.56 258.584 1024.92 262.532 1028.1 265.625C1023.85 266.192 1020.79 267.864 1018.69 270.144Z" fill="#FAE7D4"/>
<path d="M1368.11 398.729C1366.67 402.784 1364.8 406.67 1362.47 410.314H1200.25V410.332H1188.93V264.131H1208.32V223.971H1227.71V278.223H1243.41V266.107H1263.52C1265.4 272.085 1267.77 277.642 1270.75 282.64V286.596H1273.31C1282.21 299.169 1295.72 307.453 1316.32 308.832C1330.64 309.789 1342.7 316.192 1351.88 325.668C1351.97 325.755 1352.05 325.845 1352.14 325.934C1369.88 344.459 1376.72 374.517 1368.11 398.729Z" fill="#F7DFC8"/>
<path d="M1200.25 168.792V410.333H1187.12V166.035C1191.64 166.705 1196.02 167.634 1200.25 168.792Z" fill="#EFCBAB"/>
<path d="M1188.93 410.331H1200.25V410.312H1362.47C1364.79 406.668 1366.67 402.78 1368.11 398.727H1200.25H1188.93H1187.11H1184.27V410.312L1188.93 410.331Z" fill="#EFCBAB"/>
<path d="M973.31 309.896C970.699 299.821 954.435 302.969 954.435 302.969C954.435 302.969 943.391 320.601 940.178 321.022C936.966 321.442 946.805 304.02 946.805 304.02C940.58 303.39 924.717 311.366 924.717 311.366C924.717 311.366 925.721 331.938 922.508 331.517C919.296 331.098 922.508 313.255 922.508 313.255C916.485 315.144 910.862 322.49 910.862 322.49C903.834 334.456 918.894 343.273 918.894 343.273C918.894 343.273 919.095 350.408 914.878 358.597C914.878 358.597 909.578 367.015 911.278 377.898H906.613C907.508 370.063 903.765 364.122 903.765 364.122C900.567 357.911 900.719 352.498 900.719 352.498C900.719 352.498 912.144 345.809 906.812 336.732C906.812 336.732 902.546 331.159 897.977 329.725C897.977 329.725 900.415 343.26 897.977 343.58C895.539 343.898 896.302 328.292 896.302 328.292C896.302 328.292 884.268 322.241 879.546 322.719C879.546 322.719 887.01 335.936 884.572 335.618C882.134 335.301 873.758 321.923 873.758 321.923C873.758 321.923 861.42 319.535 859.438 327.179C857.459 334.823 860.657 338.645 862.485 339.123C864.312 339.6 876.041 339.44 875.737 341.034C875.433 342.627 867.511 345.173 863.093 343.74C863.093 343.74 867.967 356.32 874.366 355.684C880.763 355.046 882.745 350.907 886.704 350.589C890.665 350.271 893.559 351.384 891.578 352.5C889.598 353.615 882.895 352.864 879.696 355.708C876.498 358.551 873.908 360.304 879.848 361.577C885.789 362.85 896.452 362.055 898.585 357.277C898.679 357.069 898.766 356.872 898.851 356.68C898.723 357.075 898.585 357.277 898.585 357.277C899.681 357.945 901.325 361.134 902.465 363.577C902.628 363.994 902.885 364.569 903.267 365.351C903.421 365.705 903.544 365.994 903.632 366.195C904.948 369.636 904.999 374.649 904.855 377.9H899.81H892.482H887.917V378.845H888.903C889.264 391.386 896.788 402.045 907.345 406.502H892.119C890.109 406.502 888.481 408.205 888.481 410.306H948.293C948.293 408.205 946.663 406.502 944.655 406.502H929.429C939.986 402.045 947.509 391.386 947.872 378.845H948.557V377.9H917.113C917.827 376.26 918.699 374.653 919.718 373.466C919.841 373.333 920.022 373.14 920.243 372.908C920.76 372.406 921.123 372.029 921.367 371.75C922.949 370.16 925.135 368.138 926.188 367.942C926.188 367.942 926.135 367.739 926.143 367.387C926.157 367.565 926.171 367.747 926.188 367.942C926.549 372.369 934.763 376.236 939.817 377.029C944.872 377.825 943.31 375.653 941.568 372.432C939.826 369.211 934.315 367.77 933.057 366.288C931.8 364.804 934.4 364.802 937.444 366.255C940.489 367.709 940.907 371.586 945.793 374.033C950.679 376.479 958.029 368.005 958.029 368.005C954.137 367.798 948.575 363.377 948.778 362.024C948.979 360.672 958.216 364.359 959.794 364.535C961.374 364.711 964.966 362.658 965.521 356.01C966.077 349.362 955.652 347.506 955.652 347.506C955.652 347.506 953.248 349.374 950.533 351.255C949.997 350.528 949.127 349.724 948.109 348.827C949.005 347.997 949.811 347.285 950.314 346.846C951.316 347.131 952.411 347.352 953.632 347.473C962.065 348.313 968.491 331.729 968.491 331.729C962.668 333.618 952.226 330.26 951.825 328.16C951.423 326.061 966.884 326.272 969.294 325.642C971.703 325.011 975.92 319.974 973.31 309.896ZM930.473 357.289C929.995 357.03 930.027 356.162 930.335 355.02C931.001 355.178 931.684 355.314 932.38 355.429C931.678 356.751 930.999 357.573 930.473 357.289ZM920.188 371.786C920.188 371.786 917.424 373.928 915.493 377.898H913.497C913.25 373.727 913.154 366.288 915.051 361.328C915.164 361.061 915.326 360.68 915.531 360.215C916.034 359.184 916.375 358.425 916.588 357.876C918.091 354.654 920.257 350.451 921.703 349.57C921.703 349.57 921.521 349.303 921.352 348.783C921.464 349.036 921.582 349.295 921.703 349.57C922.062 350.372 922.604 351.091 923.291 351.728C920.547 357.073 925.827 363.514 925.827 363.514C925.827 363.514 924.445 367.845 920.188 371.786ZM942.369 345.358C938.051 344.113 932.844 344.345 930.942 343.275C928.332 341.805 932.147 340.335 937.367 340.756C940.878 341.038 943.213 343.598 946.928 345.501C945.48 345.368 943.884 345.337 942.369 345.358Z" fill="#F6DBC3"/>
<path d="M947.746 358.441C947.746 358.441 939.408 348.732 947.233 342.566C947.233 342.566 952.946 339.112 957.607 339.394C957.607 339.394 951.005 350.445 953.141 351.544C955.277 352.643 959.609 338.701 959.609 338.701C959.609 338.701 972.614 337.442 976.796 339.45C976.796 339.45 965.68 348.53 968.02 349.07C970.361 349.611 982.37 340.697 982.37 340.697C982.37 340.697 994.475 342.754 993.828 350.123C993.183 357.492 989.012 359.769 987.179 359.573C985.345 359.377 974.624 355.291 974.391 356.791C974.158 358.289 980.611 363.188 985.13 363.419C985.13 363.419 976.598 372.812 970.927 370.102C965.256 367.391 964.771 363.093 961.236 361.482C957.7 359.87 954.682 359.875 956.143 361.518C957.603 363.162 964 364.759 966.022 368.328C968.044 371.897 969.858 374.304 963.99 373.424C958.122 372.543 948.586 368.258 948.166 363.35C947.746 358.441 947.746 358.441 947.746 358.441Z" fill="#599DAD"/>
<path d="M987.881 350.323C987.881 350.323 955.007 349.058 947.746 358.443C947.746 358.443 946.142 363.243 941.199 367.614L940.428 369.709C940.428 369.709 946.125 363.715 948.164 363.35C948.166 363.348 944.977 351.724 987.881 350.323Z" fill="#599DAD"/>
<path d="M941.201 367.612C941.201 367.612 934.144 372.82 933.654 382.127L934.933 382.242C934.933 382.242 937.187 372.62 941.26 368.857C945.334 365.091 941.201 367.612 941.201 367.612Z" fill="#599DAD"/>
<path d="M918.596 346.232C918.596 346.232 931.859 338.819 925.67 328.758C925.67 328.758 920.72 322.579 915.414 320.992C915.414 320.992 918.243 335.995 915.414 336.347C912.584 336.699 913.469 319.403 913.469 319.403C913.469 319.403 899.498 312.696 894.016 313.224C894.016 313.224 902.68 327.875 899.851 327.521C897.022 327.169 887.294 312.342 887.294 312.342C887.294 312.342 872.971 309.694 870.671 318.166C868.373 326.638 872.086 330.875 874.208 331.404C876.329 331.934 889.947 331.756 889.592 333.521C889.239 335.286 880.043 338.11 874.914 336.521C874.914 336.521 880.573 350.465 888 349.759C895.427 349.052 897.725 344.463 902.323 344.111C906.921 343.758 910.282 344.993 907.982 346.228C905.682 347.463 897.902 346.633 894.188 349.785C890.474 352.937 887.469 354.878 894.365 356.289C901.261 357.702 913.641 356.82 916.115 351.524C918.596 346.232 918.596 346.232 918.596 346.232Z" fill="#6BB7BF"/>
<path d="M877.214 320.816C877.214 320.816 914.351 332.819 918.594 346.232C918.594 346.232 918.417 352.232 922.131 359.117V361.765C922.131 361.765 918.241 352.763 916.117 351.528C916.119 351.528 924.431 339.878 877.214 320.816Z" fill="#6BB7BF"/>
<path d="M922.133 359.117C922.133 359.117 927.861 367.798 924.595 378.363L923.123 377.969C923.123 377.969 924.553 366.33 921.557 360.478C918.557 354.623 922.133 359.117 922.133 359.117Z" fill="#6BB7BF"/>
<path d="M939.696 336.009C939.696 336.009 922.212 326.237 930.372 312.975C930.372 312.975 936.899 304.831 943.892 302.738C943.892 302.738 940.162 322.514 943.892 322.98C947.622 323.446 946.456 300.645 946.456 300.645C946.456 300.645 964.872 291.804 972.099 292.501C972.099 292.501 960.676 311.811 964.406 311.346C968.136 310.88 980.956 291.337 980.956 291.337C980.956 291.337 999.837 287.847 1002.87 299.015C1005.9 310.184 1001.01 315.767 998.206 316.466C995.409 317.164 977.46 316.931 977.926 319.257C978.393 321.583 990.513 325.306 997.273 323.213C997.273 323.213 989.814 341.594 980.023 340.663C970.233 339.732 967.203 333.683 961.142 333.217C955.082 332.752 950.652 334.381 953.682 336.009C956.713 337.637 966.969 336.543 971.866 340.697C976.762 344.851 980.723 347.41 971.632 349.273C962.542 351.133 946.223 349.971 942.959 342.991C939.696 336.009 939.696 336.009 939.696 336.009Z" fill="#86D1CD"/>
<path d="M994.243 302.505C994.243 302.505 945.29 318.326 939.696 336.009C939.696 336.009 939.929 343.92 935.033 352.994V356.484C935.033 356.484 940.162 344.617 942.959 342.989C942.959 342.989 932.003 327.632 994.243 302.505Z" fill="#6BB7BF"/>
<path d="M935.033 352.994C935.033 352.994 927.484 364.435 931.788 378.365L933.731 377.845C933.731 377.845 931.846 362.504 935.795 354.787C939.744 347.07 935.033 352.994 935.033 352.994Z" fill="#6BB7BF"/>
<path d="M939.108 408.569C958.021 408.569 973.354 393.265 973.354 374.387H904.861C904.861 393.265 920.192 408.569 939.108 408.569Z" fill="#E0B594"/>
<path d="M947.535 408.306C946.142 408.48 944.722 408.567 943.28 408.567C924.366 408.567 909.035 393.263 909.035 374.385H917.543C917.541 391.828 930.627 406.215 947.535 408.306Z" fill="#FFEBDC"/>
<path d="M973.827 410.308H904.386C904.386 407.98 906.278 406.091 908.611 406.091H969.6C971.935 406.091 973.827 407.978 973.827 410.308Z" fill="#E0B594"/>
<path d="M974.131 374.387H903.733V375.436H974.131V374.387Z" fill="#E0B594"/>
<path d="M1407.83 411.833H834.74C834.381 411.833 834.089 411.541 834.089 411.183V410.962C834.089 410.604 834.381 410.312 834.74 410.312H1407.83C1408.19 410.312 1408.48 410.604 1408.48 410.962V411.183C1408.48 411.541 1408.19 411.833 1407.83 411.833Z" fill="#2E3552"/>
<path d="M1071.78 145.36C1071.76 144.712 1071.26 137.72 1060.59 137.356C1060.59 137.356 1065.83 137.979 1066.74 140.283C1066.74 140.283 1063.17 137.439 1060.26 138.354C1057.35 139.269 1055.64 144.356 1055.62 146.028C1055.61 147.702 1057.22 153.095 1059.07 153.553C1059.77 153.727 1060.57 153.68 1061.31 153.555C1060.82 154.32 1060.34 155.164 1059.88 156.108C1055.62 164.831 1060.01 173.353 1063.61 172.412C1065.93 171.809 1066.58 175.744 1066.58 175.744L1089.04 157.599C1089.03 157.599 1080.78 140.566 1071.78 145.36Z" fill="#2C3A64"/>
<path d="M1134.5 246.132C1133.42 245.051 1126.88 245.304 1126.88 245.304C1126.88 245.304 1123.27 243.863 1118.83 241.917C1112.66 239.178 1104.9 235.504 1103.2 233.632C1099.27 229.273 1094.54 214.645 1090.1 204.988C1089.7 204.088 1089.31 203.223 1088.91 202.395C1088.87 202.322 1088.84 202.215 1088.77 202.142C1088.55 201.745 1088.37 201.385 1088.19 201.061C1088.19 201.025 1088.15 200.988 1088.12 200.954C1087.29 199.369 1086.42 198.108 1085.63 197.28V197.243C1084.65 196.199 1083.71 195.765 1082.85 196.126C1082.85 196.126 1081.15 196.99 1079.42 199.045C1079.2 199.225 1079.06 199.442 1078.91 199.658C1077.87 200.992 1076.86 202.758 1076.24 204.99C1075.77 206.683 1075.52 208.63 1075.63 210.9C1075.77 214.61 1077.61 219.258 1080.25 223.943C1080.35 224.159 1080.46 224.376 1080.61 224.591C1085.66 233.417 1093.42 242.245 1098.15 245.128C1101.26 247.037 1109.05 248.191 1115.62 248.839C1119.99 249.308 1123.85 249.523 1125.44 249.632C1126.13 250.39 1131.11 256.082 1132.99 254.424C1135.04 252.653 1135.58 247.213 1134.5 246.132Z" fill="#ED985F"/>
<path d="M1192.54 339.042L1168.52 337.161C1168.52 337.161 1167.94 333.507 1169.2 330.734C1170.4 328.073 1168.74 326.148 1167.1 322.98C1168.63 324.549 1173.88 324.318 1177.35 323.851C1177.78 324.539 1182.06 330.877 1183.49 331.898C1185.06 333.025 1192.06 334.505 1192.54 339.042Z" fill="#233862"/>
<path d="M1164.33 337.163H1140.3C1140.3 337.163 1139.72 333.509 1140.98 330.735C1142.18 328.075 1144.28 325.219 1142.63 322.051C1144.16 323.62 1148.98 323.448 1152.45 322.982C1152.88 323.67 1150.85 328.17 1155.27 331.899C1156.75 333.144 1163.84 332.624 1164.33 337.163Z" fill="#233862"/>
<path d="M1160.34 251.946C1160.34 251.946 1152.36 248.756 1141.45 259.823C1120.5 276.761 1093.59 319.852 1091.07 322.877C1086 328.934 1089.92 337.363 1110.63 337.163C1122.73 337.045 1130.15 331.497 1133.47 326.509C1134.35 325.179 1137.6 319.117 1141.58 311.002C1141.46 319.154 1141.41 325.063 1141.41 325.063C1140.79 330.841 1153.79 329.262 1153.79 329.262C1175.85 255.625 1160.34 251.946 1160.34 251.946Z" fill="#163560"/>
<path d="M1149.61 225.129C1148.4 222.698 1146.12 220.999 1144.41 219.993C1145.13 219.839 1146.07 220.238 1146.07 220.238C1145.15 219.402 1142.19 218.888 1142.19 218.888C1131.64 203.907 1115.37 223.309 1112.41 228.364C1109.45 233.417 1105.73 239.029 1095.71 238.636C1075.99 237.861 1074.74 257.655 1078.77 267.791C1078.83 267.933 1088.5 285.019 1088.5 285.019C1090.77 280.855 1111.24 263.188 1124.87 263.317C1129.44 261.473 1134.27 256.042 1134.65 255.612C1131.07 260.086 1128.47 262.204 1126.74 263.214C1139.7 261.218 1152.84 231.573 1149.61 225.129Z" fill="#B5453C"/>
<path d="M1125.68 263.317C1125.72 263.368 1123.9 270.081 1118.44 267.137C1114.85 265.204 1109.1 256.959 1111.32 254.165C1112.37 252.837 1117.01 250.314 1121.85 241.77L1122.43 242.27L1132.18 250.693C1132.18 250.693 1129.96 254.005 1128.1 257.254C1126.53 259.983 1125.22 262.669 1125.68 263.317Z" fill="#F4A269"/>
<path d="M1122.07 240.158C1122.07 240.158 1122.25 233.235 1124.3 228.581C1125.77 225.259 1134.67 215.27 1144.68 224.265C1144.68 224.265 1147.69 226.732 1149.34 230.795C1150.66 234.026 1151.78 239.846 1141.45 246.853L1138.27 249.422L1122.07 240.158Z" fill="#B5453C"/>
<path d="M1108.95 250.505C1108.95 250.505 1112.54 251.187 1114.05 249.159C1115.57 247.132 1118.87 242.842 1119.64 245.304C1120.41 247.766 1127.69 254.92 1129.37 255.108C1131.06 255.296 1132.24 255.766 1131.28 256.637C1130.33 257.507 1130.73 260.993 1129.78 261.311C1128.82 261.629 1111.15 250.312 1108.95 250.505Z" fill="#6BB7BF"/>
<path d="M1131.49 255.396C1131.49 255.396 1117.42 246.314 1123.22 237.654C1129.02 228.994 1131.11 221.989 1140.34 227.421C1149.57 232.852 1149.09 237.31 1147.86 240.67C1146.62 244.033 1135.3 257.536 1131.49 255.396Z" fill="#FFB27D"/>
<path d="M1132.18 262.42C1132.18 262.42 1108.35 244.893 1100.01 251.495C1087.71 261.232 1090.17 294.106 1087.31 298.384C1084.46 302.661 1068.36 333.335 1094.54 336.456C1120.73 339.576 1126.76 323.1 1127.95 310.743C1129.14 298.386 1132.18 262.42 1132.18 262.42Z" fill="#6BB7BF"/>
<path d="M1100.83 262.2C1100.83 262.2 1093.97 300.064 1107.57 310.409C1121.16 320.753 1128.01 261.03 1100.83 262.2Z" fill="#599DAD"/>
<path d="M1114.51 256.151C1114.51 256.151 1114.78 251.727 1118.69 253.418C1122.6 255.11 1129.83 257.647 1132.63 256.606C1135.44 255.566 1128.13 269.552 1121.45 264.868C1114.78 260.183 1114.51 256.151 1114.51 256.151Z" fill="#599DAD"/>
<path d="M1146.82 231.451C1146.82 231.451 1136.2 239.055 1129.34 236.644C1122.48 234.233 1120.99 230.972 1120.99 230.972C1120.99 230.972 1127.87 230.415 1132.97 224.83C1132.97 224.827 1147.2 224.696 1146.82 231.451Z" fill="#B5453C"/>
<path d="M1164.94 280.808C1164.94 280.808 1170.33 283.15 1169.26 289.322C1168.19 295.495 1166.05 293.426 1166.05 293.426L1164.94 280.808Z" fill="#FFB27D"/>
<path d="M1145.33 231.644C1145.33 231.644 1146.65 235.814 1145.86 238.482C1145.08 241.15 1142.35 245.895 1143.77 246.626C1143.77 246.626 1151.28 241.646 1150.67 235.583C1150.03 229.156 1145.33 231.644 1145.33 231.644Z" fill="#B5453C"/>
<path d="M1084.38 322.877C1087.56 319.071 1129.55 245.808 1147.02 246.794C1173.31 248.278 1127.36 321.423 1124.14 326.268C1120.82 331.258 1116.05 337.044 1103.94 337.161C1083.22 337.363 1079.31 328.934 1084.38 322.877Z" fill="#1C468A"/>
<path d="M1154.4 251.946C1154.4 251.946 1155.45 252.918 1179.23 325.895C1179.23 325.895 1169.31 333.072 1167.1 327.695C1167.1 327.695 1135.05 279.688 1142.6 271.235C1150.15 262.783 1154.4 251.946 1154.4 251.946Z" fill="#1C468A"/>
<path d="M1098.86 254.173C1098.86 254.173 1092.58 263.852 1112.1 272.731C1131.62 281.61 1133.92 283.778 1137.73 284.571C1143.66 285.806 1166.44 285.632 1166.44 285.632C1166.44 285.632 1167.04 282.027 1164.94 280.808C1161.58 278.858 1142.17 275.69 1139.56 274.646C1136.94 273.601 1109.06 243.687 1098.86 254.173Z" fill="#ED985F"/>
<path d="M1079.6 402.32L1074.83 404.093C1074.83 404.093 1054.11 375.414 1051.56 350.18C1051.11 345.675 1051.26 341.311 1052.24 337.28C1052.24 337.28 1052.04 336.126 1051.69 334.086C1051.52 333.134 1051.32 331.987 1051.09 330.673C1050.42 326.82 1049.49 321.551 1048.43 315.548C1045.99 301.738 1042.84 284.085 1040.38 271.107L1041.67 270.696L1055.57 266.218L1058.45 257.108L1068.8 254.388C1068.8 254.388 1071.12 258.904 1073.18 280.239C1073.56 283.037 1073.91 286.124 1074.17 289.47C1074.98 299.685 1075.04 312.356 1073.19 326.843C1072.71 330.551 1072.11 334.379 1071.37 338.313C1070.82 341.198 1070.74 345.127 1070.97 349.639C1072.01 370.264 1079.6 402.32 1079.6 402.32Z" fill="#2B478B"/>
<path d="M1074.17 289.466L1051.69 334.084C1051.52 333.132 1051.32 331.985 1051.09 330.671C1050.42 326.818 1049.49 321.549 1048.43 315.547C1045.99 301.736 1042.84 284.083 1040.38 271.105L1041.67 270.694L1055.57 266.216L1058.45 257.106L1068.8 254.386C1068.8 254.386 1071.12 258.902 1073.18 280.237C1073.56 283.035 1073.91 286.12 1074.17 289.466Z" fill="#233862"/>
<path d="M1064.28 260.111L1063.76 255.655C1055.04 257.967 1031.74 249.195 1031.74 249.195C1031.74 249.195 1023.29 256.606 1024.4 274.374C1024.94 283.047 1025.93 319.897 1026.96 330.802C1027.34 334.754 1027.66 337.568 1027.8 338.689C1027.8 338.695 1027.8 338.697 1027.8 338.699C1027.84 339.042 1027.72 339.365 1027.54 339.665C1026.02 342.24 1024.77 344.922 1023.73 347.667C1013.59 374.63 1025.29 407.836 1025.29 407.836L1028.33 406.616C1028.33 406.616 1034.99 369.662 1040.4 353.336C1041.32 350.566 1042.2 348.39 1043 347.091C1045.35 343.301 1047.54 337.11 1049.52 329.748C1053.26 315.826 1056.28 297.718 1058.28 283.739C1058.56 283.751 1064.28 260.111 1064.28 260.111Z" fill="#2B478B"/>
<path d="M1080.94 206.071C1078.2 207.339 1074.9 208.201 1070.9 208.42C1055.9 209.24 1052.5 196.122 1051.88 187.415C1054.04 186.633 1055.94 186.708 1057.03 186.765C1058.09 186.824 1059.2 186.933 1060.11 187.044C1061.95 186.089 1065.24 181.443 1067.15 173.673L1067.79 173.973L1078.61 179.05C1078.61 179.05 1077.46 182.564 1076.61 185.925C1075.95 188.556 1075.48 191.097 1075.87 191.81C1076.73 192.156 1077.24 192.372 1077.24 192.372C1077.24 192.372 1077.24 192.376 1077.24 192.385C1077.35 192.662 1079.7 198.644 1080.94 206.071Z" fill="#FFB27D"/>
<path d="M1078.61 179.052C1078.61 179.052 1077.46 182.562 1076.61 185.927C1070.29 184.166 1068.37 177.532 1067.79 173.975L1078.61 179.052Z" fill="#ED985F"/>
<path d="M1079.94 182.769C1079.94 182.769 1064.82 179.275 1067.14 169.904C1069.47 160.533 1069.08 153.771 1078.84 155.608C1088.6 157.442 1089.58 161.48 1089.56 164.796C1089.55 168.112 1083.94 183.437 1079.94 182.769Z" fill="#FFB27D"/>
<path d="M1104.4 250.023C1104.4 250.023 1114.37 250.426 1135.17 269.552C1135.17 269.552 1138.35 273.411 1139.94 273.668C1141.52 273.925 1145.81 275.05 1145.9 276.14C1146 277.229 1140.62 290.891 1133.78 291.282C1126.93 291.673 1094.86 268.153 1097.11 260.25C1099.36 252.345 1104.4 250.023 1104.4 250.023Z" fill="#6BB7BF"/>
<path d="M1090.41 159.476C1088.79 156.079 1086.87 156.261 1085.67 156.863C1078.57 150.298 1071.59 155.66 1071.59 155.66C1068.91 162.13 1063.09 164.776 1063.09 164.776C1063.09 164.776 1065.42 167.151 1072.15 167.098C1074.21 167.082 1076.28 166.138 1078.16 164.841C1074.53 168.491 1070.27 170.714 1070.27 170.714C1078.71 169.102 1084.36 159.359 1084.94 158.324C1085.65 159.377 1087.02 161.618 1087.14 163.511C1087.29 166.084 1086.41 171.078 1087.88 171.266C1087.88 171.268 1092.85 164.57 1090.41 159.476Z" fill="#2C3A64"/>
<path d="M1090.14 204.972C1089.59 203.341 1085.95 196.998 1085.95 196.998H1085.95C1085.93 196.982 1083.63 194.879 1077.24 192.374C1077.24 192.374 1077.24 192.379 1077.24 192.387C1077.34 192.759 1080.07 202.628 1079.07 204.735C1078.06 206.877 1058.9 199.962 1057.85 198.385C1057.01 197.118 1056.99 190.421 1057.01 187.814C1057.02 187.164 1057.03 186.767 1057.03 186.767C1057.03 186.767 1049.87 185.799 1045.85 187.425C1045.85 187.425 1047.44 190.868 1048.02 194.666C1048.08 195.028 1048.12 195.389 1048.16 195.751C1048.24 196.516 1048.26 197.282 1048.22 198.029C1048.16 199.016 1047.65 199.891 1046.84 200.745C1046.1 201.531 1045.09 202.304 1043.95 203.132C1043.21 203.669 1042.41 204.231 1041.59 204.843C1041.52 209.315 1041.83 216.667 1041 224.514C1040.79 226.504 1040.13 228.409 1039.09 230.095C1038.67 230.767 1038.2 231.405 1037.67 232C1033.44 236.731 1025.95 246.161 1027.6 252.029C1027.72 257.564 1074.49 264.836 1073.49 258.758C1073.49 258.758 1080.52 224.947 1084.32 216.785C1084.45 216.485 1084.58 216.193 1084.69 215.894C1085.91 212.673 1085.7 209.359 1085.29 206.395C1087.43 204.869 1090.14 204.972 1090.14 204.972Z" fill="#F99746"/>
<path d="M1060.9 247.391C1051.67 247.294 1043.86 237.733 1039.09 230.091C1040.13 228.405 1040.79 226.5 1041 224.51C1041.83 216.663 1041.52 209.31 1041.59 204.839C1042.41 204.229 1043.21 203.664 1043.95 203.128C1045.09 202.3 1046.1 201.527 1046.84 200.741C1054.39 213.487 1073.41 247.525 1060.9 247.391Z" fill="#ED7D2B"/>
<path d="M1112.37 254.562C1112.37 254.562 1106.38 250.274 1102.81 251.104C1099.63 251.825 1092.84 250.383 1091.51 250.096C1089.92 249.232 1088.01 248.187 1085.98 247.033C1081.11 244.296 1075.52 240.944 1071.69 238.17C1069.49 236.585 1067.83 235.18 1067.25 234.17C1066.35 232.621 1065.34 230.172 1064.22 227.145C1063.64 225.56 1063.03 223.831 1062.41 221.993C1061.33 218.967 1060.25 215.687 1059.13 212.41C1057.1 206.43 1054.94 200.411 1052.88 195.763C1051.55 192.846 1050.25 190.431 1049.02 188.953C1048.04 187.765 1047.11 187.152 1046.2 187.295C1046.06 187.332 1045.95 187.366 1045.84 187.403C1045.84 187.403 1040.65 188.844 1040.57 199.292C1040.54 199.869 1040.57 200.482 1040.61 201.13C1040.68 202.968 1041.04 205.201 1041.59 207.651C1042.45 211.758 1043.9 216.513 1045.7 221.341C1046.21 222.639 1046.71 223.971 1047.25 225.305C1051.15 234.962 1056.17 243.968 1060.39 247.031C1060.57 247.175 1060.72 247.284 1060.9 247.391C1062.67 248.509 1065.27 249.626 1068.26 250.669C1072.52 252.11 1077.58 253.408 1082.09 254.489H1082.12C1084.76 255.066 1087.18 255.606 1089.2 256.001C1089.2 256.001 1089.63 256.108 1090.39 256.254C1092.3 256.722 1096.24 257.732 1099.95 259.173C1105.15 261.226 1108.4 257.839 1110.71 256.868C1113.02 255.932 1112.37 254.562 1112.37 254.562Z" fill="#FFB27D"/>
<path d="M1052.87 195.779C1045.92 193.866 1040.56 199.284 1040.56 199.284C1040.65 188.852 1045.85 187.425 1045.85 187.425C1047.95 186.558 1050.37 190.176 1052.87 195.779Z" fill="#F99746"/>
<path d="M1042.95 410.312H1018.92C1018.92 410.312 1018.34 406.658 1019.6 403.885C1020.8 401.225 1022.69 400.016 1022.24 396.795C1023.76 398.364 1026.25 400.121 1029.72 399.654C1030.15 400.342 1032.47 404.029 1033.89 405.047C1035.46 406.176 1042.46 405.774 1042.95 410.312Z" fill="#233862"/>
<path d="M1094.53 410.312H1070.5C1070.5 410.312 1069.6 406.488 1071.18 403.885C1072.58 401.583 1072.04 400.271 1071.01 398.366C1072.1 398.812 1073.51 399.217 1075.06 399.127C1076.25 399.059 1077.52 398.516 1078.63 397.872C1079.66 399.048 1084.09 404.057 1085.47 405.049C1087.04 406.176 1094.04 405.774 1094.53 410.312Z" fill="#233862"/>
<path d="M1152.27 339.576H1064.33V410.312H1152.27V339.576Z" fill="#C6601A"/>
<path d="M1196.24 339.578H1116.68V410.312H1196.24V339.578Z" fill="#F1A34F"/>
<path d="M1131.38 351.775C1130.58 351.775 1129.92 352.404 1129.92 353.182C1129.92 353.959 1130.58 354.589 1131.38 354.589C1132.19 354.589 1132.84 353.959 1132.84 353.182C1132.84 352.404 1132.19 351.775 1131.38 351.775Z" fill="#D3671E"/>
<path d="M1183.44 353.182C1183.44 352.404 1184.09 351.775 1184.9 351.775C1185.7 351.775 1186.35 352.404 1186.35 353.182C1186.35 353.959 1185.7 354.589 1184.9 354.589C1184.09 354.591 1183.44 353.959 1183.44 353.182Z" fill="#D3671E"/>
<path d="M1131.38 396.334C1130.58 396.334 1129.92 396.963 1129.92 397.741C1129.92 398.518 1130.58 399.148 1131.38 399.148C1132.19 399.148 1132.84 398.518 1132.84 397.741C1132.84 396.963 1132.19 396.334 1131.38 396.334Z" fill="#D3671E"/>
<path d="M1183.44 397.741C1183.44 396.963 1184.09 396.334 1184.9 396.334C1185.7 396.334 1186.35 396.963 1186.35 397.741C1186.35 398.518 1185.7 399.148 1184.9 399.148C1184.09 399.15 1183.44 398.518 1183.44 397.741Z" fill="#D3671E"/>
<path d="M1072.61 353.182C1072.61 352.404 1073.02 351.775 1073.52 351.775C1074.01 351.775 1074.42 352.404 1074.42 353.182C1074.42 353.959 1074.01 354.589 1073.52 354.589C1073.02 354.589 1072.61 353.959 1072.61 353.182Z" fill="#B25618"/>
<path d="M1105.76 353.182C1105.76 352.404 1106.16 351.775 1106.66 351.775C1107.16 351.775 1107.56 352.404 1107.56 353.182C1107.56 353.959 1107.16 354.589 1106.66 354.589C1106.16 354.589 1105.76 353.959 1105.76 353.182Z" fill="#B25618"/>
<path d="M1072.61 397.741C1072.61 396.963 1073.02 396.334 1073.52 396.334C1074.01 396.334 1074.42 396.963 1074.42 397.741C1074.42 398.518 1074.01 399.148 1073.52 399.148C1073.02 399.148 1072.61 398.518 1072.61 397.741Z" fill="#B25618"/>
<path d="M1106.66 399.148C1107.16 399.148 1107.56 398.518 1107.56 397.741C1107.56 396.964 1107.16 396.334 1106.66 396.334C1106.16 396.334 1105.76 396.964 1105.76 397.741C1105.76 398.518 1106.16 399.148 1106.66 399.148Z" fill="#B25618"/>
<path d="M1064.33 339.691C1064.33 339.691 1076.28 328.675 1084.17 332.035C1094.54 336.456 1119.08 335.226 1125.27 334.084C1131.46 332.944 1179.82 336.351 1196.24 339.578L1064.33 339.691Z" fill="#D3671E"/>
<path opacity="0.4" d="M1196.24 391.757V410.312H1116.68V339.578H1130.02L1130.29 339.691C1130.29 339.691 1137.43 387.671 1196.24 391.757Z" fill="#D86713"/>
<path d="M1215.61 348.384C1215.61 348.384 1199.44 346.096 1198.5 343.491C1198.5 343.491 1199.62 341.137 1197.85 340.521C1197.37 340.355 1196.57 340.052 1196.22 340.503L1196.24 345.307C1196.24 345.307 1197.98 347.003 1198.96 348.37C1199.5 349.125 1209.95 353.492 1209.95 353.492L1215.61 348.384Z" fill="#163560"/>
<path d="M1248.94 383.627C1250.47 381.416 1248.87 365.794 1237.84 370.537C1235.49 371.245 1232.67 372.938 1229.29 376.027C1229.29 376.027 1224.44 387.432 1243.57 394.977C1243.57 394.977 1245.46 395.795 1245.73 397.534C1246 399.273 1246.3 407.122 1245.65 407.361C1245 407.597 1244.04 406.699 1243.34 407.689C1242.64 408.678 1242.89 410.314 1242.89 410.314H1249.84C1249.84 410.314 1253.16 392.698 1252.98 391.297C1252.79 389.894 1247.12 386.25 1248.94 383.627Z" fill="#163560"/>
<path d="M1221.67 319.777C1221.67 319.777 1225.35 327.476 1223.32 329.786L1217.6 325.205C1217.6 325.205 1217.57 322.937 1221.67 319.777Z" fill="#233862"/>
<path d="M1261.08 361.237C1259.58 358.522 1257.33 353.981 1260.29 352.129C1262.82 350.55 1261.85 347.256 1260.39 346.469C1257.31 344.809 1254.18 346.908 1252.72 348.957C1249.93 352.856 1253.63 358.951 1253.63 358.951C1257.14 366.482 1249.92 370.401 1246.44 371.8C1244.46 368.853 1242.41 366.64 1240.59 364.911C1239.39 363.777 1238.29 362.852 1237.37 362.067C1227.57 353.714 1229.95 350.657 1227.62 346.902C1227.17 346.159 1225.37 344.137 1224.89 343.489C1224.41 342.847 1224.24 340.562 1224.18 338.55C1225.28 337.614 1225.41 336.566 1225.41 336.566C1225.51 336.991 1225.4 337.426 1225.4 337.426C1226.54 336.503 1226.28 334.373 1226.28 334.373C1226.53 334.681 1226.63 335.341 1226.63 335.341C1227.21 332.029 1225.16 329.326 1225.15 329.306C1225.51 326.195 1222.92 320.783 1222.92 320.783C1221.03 322.245 1220.02 323.514 1219.48 324.458C1217.71 323.923 1215.61 323.96 1213.43 326.097C1212.76 326.753 1210.77 327.286 1209.84 327.166C1209.32 327.1 1208.14 329.683 1208.1 330.035C1207.58 333.94 1208.83 335.873 1211.06 337.871C1211.38 338.752 1211.62 339.934 1211.07 340.73C1211.07 340.73 1211.54 340.537 1211.6 340.386C1211.56 340.594 1211.3 341.821 1210.63 342.372C1210.63 342.372 1210.93 342.337 1211.08 342.264C1210.5 343.007 1208.27 346.082 1208.3 349.872C1203.61 349.91 1199.15 349.625 1198.71 348.424C1198.71 348.424 1199.73 346.449 1198.06 345.455C1197.63 345.196 1196.9 345.015 1196.24 345.034L1196.16 350.429C1196.16 350.429 1198.19 351.937 1199.17 353.305C1199.51 353.775 1206.07 356.731 1210.98 358.897C1213.84 371.262 1223.02 378.41 1226.06 380.483C1226.5 384.26 1228.74 389.175 1235.19 394.9C1235.19 394.9 1236.68 396.32 1236.34 398.044C1236 399.769 1233.58 407.245 1232.88 407.245C1232.19 407.245 1229.89 406.249 1228.89 406.939C1227.89 407.63 1229.27 410.312 1229.27 410.312H1230.7H1234.88H1236.3C1236.3 410.312 1244.98 396.052 1245.29 394.672C1245.6 393.291 1241.53 387.924 1244.14 386.084C1245.26 385.295 1246.81 380.969 1246.49 376.997C1249.91 375.802 1265.77 369.737 1261.08 361.237Z" fill="#2B478B"/>
<path d="M1209.67 327.189C1209.67 327.189 1209.99 326.968 1210.33 327.138C1210.33 327.138 1210.24 328.438 1208.97 328.517C1208.96 328.517 1209.33 327.391 1209.67 327.189Z" fill="#163560"/>
<path d="M1212.01 330.104C1212.05 330.12 1216.82 331.893 1220.24 335.808C1216.76 331.822 1212.11 329.964 1212.06 329.948L1212.01 330.104Z" fill="#163560"/>
<path d="M1211.56 330.438C1211.61 330.47 1216.61 333.863 1219.44 339.343C1216.56 333.764 1211.72 330.304 1211.66 330.272L1211.56 330.438Z" fill="#163560"/>
<path d="M1211.05 330.845C1211.08 330.879 1214.6 334.553 1215.96 339.564C1214.58 334.464 1211.2 330.764 1211.16 330.727L1211.05 330.845Z" fill="#163560"/>
<path d="M1222.92 320.783C1222.92 320.783 1223.2 326.735 1223.78 327.836C1224.37 328.94 1225.14 329.304 1225.14 329.304C1225.51 326.197 1222.92 320.783 1222.92 320.783Z" fill="#233862"/>
<path d="M946.087 225.57V277.931H880.648V251.418C879.917 251.956 879.191 252.505 878.467 253.064V280.109H948.263V225.188C947.537 225.311 946.811 225.437 946.087 225.57Z" fill="#F6DBC3"/>
<path d="M943.799 225.989V275.636H882.787V249.873C901.597 236.613 922.194 230.054 943.799 225.989Z" fill="#F6DBC3"/>
<g clip-path="url(#clip0)">
<path d="M1393.7 149.661C1397.4 149.661 1400.39 146.668 1400.39 142.975C1400.39 139.282 1397.4 136.288 1393.7 136.288C1390.01 136.288 1387.02 139.282 1387.02 142.975C1387.02 146.668 1390.01 149.661 1393.7 149.661Z" fill="#FDCB6E"/>
<path d="M1415.99 127.373C1419.69 127.373 1422.68 124.379 1422.68 120.686C1422.68 116.994 1419.69 114 1415.99 114C1412.3 114 1409.31 116.994 1409.31 120.686C1409.31 124.379 1412.3 127.373 1415.99 127.373Z" fill="#FDCB6E"/>
<path d="M1438.28 149.661C1441.97 149.661 1444.97 146.668 1444.97 142.975C1444.97 139.282 1441.97 136.288 1438.28 136.288C1434.59 136.288 1431.59 139.282 1431.59 142.975C1431.59 146.668 1434.59 149.661 1438.28 149.661Z" fill="#FDCB6E"/>
<path d="M1349.13 194.238C1352.82 194.238 1355.81 191.244 1355.81 187.551C1355.81 183.858 1352.82 180.865 1349.13 180.865C1345.43 180.865 1342.44 183.858 1342.44 187.551C1342.44 191.244 1345.43 194.238 1349.13 194.238Z" fill="#FDCB6E"/>
<path d="M1371.42 171.949C1375.11 171.949 1378.1 168.956 1378.1 165.263C1378.1 161.57 1375.11 158.576 1371.42 158.576C1367.72 158.576 1364.73 161.57 1364.73 165.263C1364.73 168.956 1367.72 171.949 1371.42 171.949Z" fill="#FDCB6E"/>
<path d="M1393.7 194.238C1397.4 194.238 1400.39 191.244 1400.39 187.551C1400.39 183.858 1397.4 180.865 1393.7 180.865C1390.01 180.865 1387.02 183.858 1387.02 187.551C1387.02 191.244 1390.01 194.238 1393.7 194.238Z" fill="#FDCB6E"/>
<path d="M1415.99 171.949C1419.69 171.949 1422.68 168.956 1422.68 165.263C1422.68 161.57 1419.69 158.576 1415.99 158.576C1412.3 158.576 1409.31 161.57 1409.31 165.263C1409.31 168.956 1412.3 171.949 1415.99 171.949Z" fill="#FDCB6E"/>
<path d="M1438.28 194.238C1441.97 194.238 1444.97 191.244 1444.97 187.551C1444.97 183.858 1441.97 180.865 1438.28 180.865C1434.59 180.865 1431.59 183.858 1431.59 187.551C1431.59 191.244 1434.59 194.238 1438.28 194.238Z" fill="#FDCB6E"/>
<path d="M1304.55 238.814C1308.24 238.814 1311.24 235.82 1311.24 232.128C1311.24 228.435 1308.24 225.441 1304.55 225.441C1300.86 225.441 1297.86 228.435 1297.86 232.128C1297.86 235.82 1300.86 238.814 1304.55 238.814Z" fill="#FDCB6E"/>
<path d="M1326.84 216.526C1330.53 216.526 1333.53 213.532 1333.53 209.839C1333.53 206.147 1330.53 203.153 1326.84 203.153C1323.15 203.153 1320.15 206.147 1320.15 209.839C1320.15 213.532 1323.15 216.526 1326.84 216.526Z" fill="#FDCB6E"/>
<path d="M1349.13 238.814C1352.82 238.814 1355.81 235.82 1355.81 232.128C1355.81 228.435 1352.82 225.441 1349.13 225.441C1345.43 225.441 1342.44 228.435 1342.44 232.128C1342.44 235.82 1345.43 238.814 1349.13 238.814Z" fill="#FDCB6E"/>
<path d="M1371.42 216.526C1375.11 216.526 1378.1 213.532 1378.1 209.839C1378.1 206.147 1375.11 203.153 1371.42 203.153C1367.72 203.153 1364.73 206.147 1364.73 209.839C1364.73 213.532 1367.72 216.526 1371.42 216.526Z" fill="#FDCB6E"/>
<path d="M1393.7 238.814C1397.4 238.814 1400.39 235.82 1400.39 232.128C1400.39 228.435 1397.4 225.441 1393.7 225.441C1390.01 225.441 1387.02 228.435 1387.02 232.128C1387.02 235.82 1390.01 238.814 1393.7 238.814Z" fill="#FDCB6E"/>
<path d="M1415.99 216.526C1419.69 216.526 1422.68 213.532 1422.68 209.839C1422.68 206.147 1419.69 203.153 1415.99 203.153C1412.3 203.153 1409.31 206.147 1409.31 209.839C1409.31 213.532 1412.3 216.526 1415.99 216.526Z" fill="#FDCB6E"/>
<path d="M1438.28 238.814C1441.97 238.814 1444.97 235.82 1444.97 232.128C1444.97 228.435 1441.97 225.441 1438.28 225.441C1434.59 225.441 1431.59 228.435 1431.59 232.128C1431.59 235.82 1434.59 238.814 1438.28 238.814Z" fill="#FDCB6E"/>
<path d="M1326.84 261.102C1330.53 261.102 1333.53 258.109 1333.53 254.416C1333.53 250.723 1330.53 247.729 1326.84 247.729C1323.15 247.729 1320.15 250.723 1320.15 254.416C1320.15 258.109 1323.15 261.102 1326.84 261.102Z" fill="#FDCB6E"/>
<path d="M1349.13 283.391C1352.82 283.391 1355.81 280.397 1355.81 276.704C1355.81 273.011 1352.82 270.018 1349.13 270.018C1345.43 270.018 1342.44 273.011 1342.44 276.704C1342.44 280.397 1345.43 283.391 1349.13 283.391Z" fill="#FDCB6E"/>
<path d="M1371.42 261.102C1375.11 261.102 1378.1 258.109 1378.1 254.416C1378.1 250.723 1375.11 247.729 1371.42 247.729C1367.72 247.729 1364.73 250.723 1364.73 254.416C1364.73 258.109 1367.72 261.102 1371.42 261.102Z" fill="#FDCB6E"/>
<path d="M1393.7 283.391C1397.4 283.391 1400.39 280.397 1400.39 276.704C1400.39 273.011 1397.4 270.018 1393.7 270.018C1390.01 270.018 1387.02 273.011 1387.02 276.704C1387.02 280.397 1390.01 283.391 1393.7 283.391Z" fill="#FDCB6E"/>
<path d="M1415.99 261.102C1419.69 261.102 1422.68 258.109 1422.68 254.416C1422.68 250.723 1419.69 247.729 1415.99 247.729C1412.3 247.729 1409.31 250.723 1409.31 254.416C1409.31 258.109 1412.3 261.102 1415.99 261.102Z" fill="#FDCB6E"/>
<path d="M1438.28 283.391C1441.97 283.391 1444.97 280.397 1444.97 276.704C1444.97 273.011 1441.97 270.018 1438.28 270.018C1434.59 270.018 1431.59 273.011 1431.59 276.704C1431.59 280.397 1434.59 283.391 1438.28 283.391Z" fill="#FDCB6E"/>
<path d="M1371.42 305.679C1375.11 305.679 1378.1 302.685 1378.1 298.992C1378.1 295.3 1375.11 292.306 1371.42 292.306C1367.72 292.306 1364.73 295.3 1364.73 298.992C1364.73 302.685 1367.72 305.679 1371.42 305.679Z" fill="#FDCB6E"/>
<path d="M1393.7 327.967C1397.4 327.967 1400.39 324.973 1400.39 321.281C1400.39 317.588 1397.4 314.594 1393.7 314.594C1390.01 314.594 1387.02 317.588 1387.02 321.281C1387.02 324.973 1390.01 327.967 1393.7 327.967Z" fill="#FDCB6E"/>
<path d="M1415.99 305.679C1419.69 305.679 1422.68 302.685 1422.68 298.992C1422.68 295.3 1419.69 292.306 1415.99 292.306C1412.3 292.306 1409.31 295.3 1409.31 298.992C1409.31 302.685 1412.3 305.679 1415.99 305.679Z" fill="#FDCB6E"/>
<path d="M1438.28 327.967C1441.97 327.967 1444.97 324.973 1444.97 321.281C1444.97 317.588 1441.97 314.594 1438.28 314.594C1434.59 314.594 1431.59 317.588 1431.59 321.281C1431.59 324.973 1434.59 327.967 1438.28 327.967Z" fill="#FDCB6E"/>
<path d="M1415.99 350.255C1419.69 350.255 1422.68 347.262 1422.68 343.569C1422.68 339.876 1419.69 336.882 1415.99 336.882C1412.3 336.882 1409.31 339.876 1409.31 343.569C1409.31 347.262 1412.3 350.255 1415.99 350.255Z" fill="#FDCB6E"/>
<path d="M1438.28 372.543C1441.97 372.543 1444.97 369.55 1444.97 365.857C1444.97 362.164 1441.97 359.171 1438.28 359.171C1434.59 359.171 1431.59 362.164 1431.59 365.857C1431.59 369.55 1434.59 372.543 1438.28 372.543Z" fill="#FDCB6E"/>
</g>
<defs>
<clipPath id="clip0">
<rect width="209" height="285" fill="white" transform="translate(1231 114)"/>
</clipPath>
</defs>
</svg>
